<mxfile host="Electron" modified="2024-02-04T22:18:51.594Z" agent="Mozilla/5.0 (Macintosh; Intel Mac OS X 10_15_7) AppleWebKit/537.36 (KHTML, like Gecko) draw.io/22.0.3 Chrome/114.0.5735.289 Electron/25.8.4 Safari/537.36" etag="DngGPa-hNE990QI9UjwL" version="22.0.3" type="device">
  <diagram name="Page-1" id="ca9SlzeG2JOVUmBvScik">
    <mxGraphModel dx="1393" dy="1018" grid="1" gridSize="10" guides="1" tooltips="1" connect="1" arrows="1" fold="1" page="1" pageScale="1" pageWidth="850" pageHeight="1100" math="0" shadow="0">
      <root>
        <mxCell id="0" />
        <mxCell id="1" parent="0" />
        <mxCell id="fhM6C2jAukkkE5KUqZ8r-2" value="" style="rounded=0;whiteSpace=wrap;html=1;fillColor=#dae8fc;strokeColor=#6c8ebf;" vertex="1" parent="1">
          <mxGeometry y="100" width="1130" height="620" as="geometry" />
        </mxCell>
        <mxCell id="fhM6C2jAukkkE5KUqZ8r-3" value="" style="rounded=0;whiteSpace=wrap;html=1;fillColor=#d5e8d4;strokeColor=#82b366;" vertex="1" parent="1">
          <mxGeometry x="40" y="160" width="1090" height="560" as="geometry" />
        </mxCell>
        <mxCell id="fhM6C2jAukkkE5KUqZ8r-7" value="" style="rounded=0;whiteSpace=wrap;html=1;fillColor=#ffe6cc;strokeColor=#d79b00;" vertex="1" parent="1">
          <mxGeometry x="80" y="430" width="1050" height="290" as="geometry" />
        </mxCell>
        <mxCell id="fhM6C2jAukkkE5KUqZ8r-8" value="&lt;font style=&quot;font-size: 18px;&quot;&gt;Public Key&lt;br&gt;&lt;/font&gt;" style="rounded=0;whiteSpace=wrap;html=1;fillColor=#e1d5e7;strokeColor=#9673a6;" vertex="1" parent="1">
          <mxGeometry x="120" y="490" width="150" height="60" as="geometry" />
        </mxCell>
        <mxCell id="fhM6C2jAukkkE5KUqZ8r-10" value="&lt;font style=&quot;font-size: 18px;&quot;&gt;Component (type = cryptographic-asset)&lt;/font&gt;" style="text;html=1;strokeColor=none;fillColor=none;align=left;verticalAlign=middle;whiteSpace=wrap;rounded=0;" vertex="1" parent="1">
          <mxGeometry x="13" y="113" width="1107" height="30" as="geometry" />
        </mxCell>
        <mxCell id="fhM6C2jAukkkE5KUqZ8r-11" value="&lt;font style=&quot;font-size: 18px;&quot;&gt;Crypto Properties&lt;/font&gt;" style="text;html=1;strokeColor=none;fillColor=none;align=left;verticalAlign=middle;whiteSpace=wrap;rounded=0;" vertex="1" parent="1">
          <mxGeometry x="54" y="175" width="211" height="30" as="geometry" />
        </mxCell>
        <mxCell id="fhM6C2jAukkkE5KUqZ8r-14" value="&lt;font style=&quot;font-size: 18px;&quot;&gt;Related Crypto Materials Properties&lt;/font&gt;" style="text;html=1;strokeColor=none;fillColor=none;align=center;verticalAlign=middle;whiteSpace=wrap;rounded=0;" vertex="1" parent="1">
          <mxGeometry x="90" y="446" width="1030" height="30" as="geometry" />
        </mxCell>
        <mxCell id="fhM6C2jAukkkE5KUqZ8r-15" value="&lt;font style=&quot;font-size: 18px;&quot;&gt;Initialization&lt;br&gt;Vector&lt;br&gt;&lt;/font&gt;" style="rounded=0;whiteSpace=wrap;html=1;fillColor=#e1d5e7;strokeColor=#9673a6;" vertex="1" parent="1">
          <mxGeometry x="285" y="630" width="150" height="60" as="geometry" />
        </mxCell>
        <mxCell id="fhM6C2jAukkkE5KUqZ8r-16" value="&lt;font style=&quot;font-size: 18px;&quot;&gt;Private Key&lt;br&gt;&lt;/font&gt;" style="rounded=0;whiteSpace=wrap;html=1;fillColor=#e1d5e7;strokeColor=#9673a6;" vertex="1" parent="1">
          <mxGeometry x="120" y="560" width="150" height="60" as="geometry" />
        </mxCell>
        <mxCell id="fhM6C2jAukkkE5KUqZ8r-17" value="&lt;font style=&quot;font-size: 18px;&quot;&gt;Secret Key&lt;br&gt;&lt;/font&gt;" style="rounded=0;whiteSpace=wrap;html=1;fillColor=#e1d5e7;strokeColor=#9673a6;" vertex="1" parent="1">
          <mxGeometry x="120" y="630" width="150" height="60" as="geometry" />
        </mxCell>
        <mxCell id="fhM6C2jAukkkE5KUqZ8r-18" value="&lt;font style=&quot;font-size: 18px;&quot;&gt;Key&lt;br&gt;&lt;/font&gt;" style="rounded=0;whiteSpace=wrap;html=1;fillColor=#e1d5e7;strokeColor=#9673a6;" vertex="1" parent="1">
          <mxGeometry x="285" y="490" width="150" height="60" as="geometry" />
        </mxCell>
        <mxCell id="fhM6C2jAukkkE5KUqZ8r-19" value="&lt;font style=&quot;font-size: 18px;&quot;&gt;Ciphertext&lt;br&gt;&lt;/font&gt;" style="rounded=0;whiteSpace=wrap;html=1;fillColor=#e1d5e7;strokeColor=#9673a6;" vertex="1" parent="1">
          <mxGeometry x="945" y="490" width="150" height="60" as="geometry" />
        </mxCell>
        <mxCell id="fhM6C2jAukkkE5KUqZ8r-20" value="&lt;font style=&quot;font-size: 18px;&quot;&gt;Signature&lt;br&gt;&lt;/font&gt;" style="rounded=0;whiteSpace=wrap;html=1;fillColor=#e1d5e7;strokeColor=#9673a6;" vertex="1" parent="1">
          <mxGeometry x="780" y="560" width="150" height="60" as="geometry" />
        </mxCell>
        <mxCell id="fhM6C2jAukkkE5KUqZ8r-21" value="&lt;font style=&quot;font-size: 18px;&quot;&gt;Digest&lt;br&gt;&lt;/font&gt;" style="rounded=0;whiteSpace=wrap;html=1;fillColor=#e1d5e7;strokeColor=#9673a6;" vertex="1" parent="1">
          <mxGeometry x="285" y="560" width="150" height="60" as="geometry" />
        </mxCell>
        <mxCell id="fhM6C2jAukkkE5KUqZ8r-22" value="&lt;font style=&quot;font-size: 18px;&quot;&gt;Nonce&lt;br&gt;&lt;/font&gt;" style="rounded=0;whiteSpace=wrap;html=1;fillColor=#e1d5e7;strokeColor=#9673a6;" vertex="1" parent="1">
          <mxGeometry x="780" y="630" width="150" height="60" as="geometry" />
        </mxCell>
        <mxCell id="fhM6C2jAukkkE5KUqZ8r-23" value="&lt;font style=&quot;font-size: 18px;&quot;&gt;Seed&lt;br&gt;&lt;/font&gt;" style="rounded=0;whiteSpace=wrap;html=1;fillColor=#e1d5e7;strokeColor=#9673a6;" vertex="1" parent="1">
          <mxGeometry x="945" y="560" width="150" height="60" as="geometry" />
        </mxCell>
        <mxCell id="fhM6C2jAukkkE5KUqZ8r-24" value="&lt;font style=&quot;font-size: 18px;&quot;&gt;Salt&lt;br&gt;&lt;/font&gt;" style="rounded=0;whiteSpace=wrap;html=1;fillColor=#e1d5e7;strokeColor=#9673a6;" vertex="1" parent="1">
          <mxGeometry x="450" y="490" width="150" height="60" as="geometry" />
        </mxCell>
        <mxCell id="fhM6C2jAukkkE5KUqZ8r-25" value="&lt;font style=&quot;font-size: 18px;&quot;&gt;Shared Secret&lt;br&gt;&lt;/font&gt;" style="rounded=0;whiteSpace=wrap;html=1;fillColor=#e1d5e7;strokeColor=#9673a6;" vertex="1" parent="1">
          <mxGeometry x="450" y="560" width="150" height="60" as="geometry" />
        </mxCell>
        <mxCell id="fhM6C2jAukkkE5KUqZ8r-26" value="&lt;font style=&quot;font-size: 18px;&quot;&gt;Tag&lt;br&gt;&lt;/font&gt;" style="rounded=0;whiteSpace=wrap;html=1;fillColor=#e1d5e7;strokeColor=#9673a6;" vertex="1" parent="1">
          <mxGeometry x="450" y="630" width="150" height="60" as="geometry" />
        </mxCell>
        <mxCell id="fhM6C2jAukkkE5KUqZ8r-27" value="&lt;font style=&quot;font-size: 18px;&quot;&gt;Additional Data&lt;br&gt;&lt;/font&gt;" style="rounded=0;whiteSpace=wrap;html=1;fillColor=#e1d5e7;strokeColor=#9673a6;" vertex="1" parent="1">
          <mxGeometry x="615" y="630" width="150" height="60" as="geometry" />
        </mxCell>
        <mxCell id="fhM6C2jAukkkE5KUqZ8r-28" value="&lt;font style=&quot;font-size: 18px;&quot;&gt;Password&lt;br&gt;&lt;/font&gt;" style="rounded=0;whiteSpace=wrap;html=1;fillColor=#e1d5e7;strokeColor=#9673a6;" vertex="1" parent="1">
          <mxGeometry x="780" y="490" width="150" height="60" as="geometry" />
        </mxCell>
        <mxCell id="fhM6C2jAukkkE5KUqZ8r-29" value="&lt;font style=&quot;font-size: 18px;&quot;&gt;Credential&lt;br&gt;&lt;/font&gt;" style="rounded=0;whiteSpace=wrap;html=1;fillColor=#e1d5e7;strokeColor=#9673a6;" vertex="1" parent="1">
          <mxGeometry x="615" y="490" width="150" height="60" as="geometry" />
        </mxCell>
        <mxCell id="fhM6C2jAukkkE5KUqZ8r-30" value="&lt;font style=&quot;font-size: 18px;&quot;&gt;Token&lt;br&gt;&lt;/font&gt;" style="rounded=0;whiteSpace=wrap;html=1;fillColor=#e1d5e7;strokeColor=#9673a6;" vertex="1" parent="1">
          <mxGeometry x="615" y="560" width="150" height="60" as="geometry" />
        </mxCell>
        <mxCell id="fhM6C2jAukkkE5KUqZ8r-31" value="&lt;font style=&quot;font-size: 18px;&quot;&gt;Other&lt;br&gt;&lt;/font&gt;" style="rounded=0;whiteSpace=wrap;html=1;fillColor=#e1d5e7;strokeColor=#9673a6;" vertex="1" parent="1">
          <mxGeometry x="945" y="630" width="150" height="60" as="geometry" />
        </mxCell>
        <mxCell id="fhM6C2jAukkkE5KUqZ8r-34" value="" style="group" vertex="1" connectable="0" parent="1">
          <mxGeometry x="80" y="360" width="1050" height="60" as="geometry" />
        </mxCell>
        <mxCell id="fhM6C2jAukkkE5KUqZ8r-6" value="" style="rounded=0;whiteSpace=wrap;html=1;fillColor=#ffe6cc;strokeColor=#d79b00;" vertex="1" parent="fhM6C2jAukkkE5KUqZ8r-34">
          <mxGeometry width="1050" height="60" as="geometry" />
        </mxCell>
        <mxCell id="fhM6C2jAukkkE5KUqZ8r-9" value="&lt;font style=&quot;font-size: 18px;&quot;&gt;Protocol Properties&lt;/font&gt;" style="text;html=1;strokeColor=none;fillColor=none;align=center;verticalAlign=middle;whiteSpace=wrap;rounded=0;" vertex="1" parent="fhM6C2jAukkkE5KUqZ8r-34">
          <mxGeometry x="10.096153846153847" y="15" width="1029.8076923076924" height="30" as="geometry" />
        </mxCell>
        <mxCell id="fhM6C2jAukkkE5KUqZ8r-35" value="" style="group" vertex="1" connectable="0" parent="1">
          <mxGeometry x="80" y="290" width="1050" height="60" as="geometry" />
        </mxCell>
        <mxCell id="fhM6C2jAukkkE5KUqZ8r-5" value="" style="rounded=0;whiteSpace=wrap;html=1;fillColor=#ffe6cc;strokeColor=#d79b00;" vertex="1" parent="fhM6C2jAukkkE5KUqZ8r-35">
          <mxGeometry width="1050" height="60" as="geometry" />
        </mxCell>
        <mxCell id="fhM6C2jAukkkE5KUqZ8r-13" value="&lt;font style=&quot;font-size: 18px;&quot;&gt;Certificate Properties&lt;/font&gt;" style="text;html=1;strokeColor=none;fillColor=none;align=center;verticalAlign=middle;whiteSpace=wrap;rounded=0;" vertex="1" parent="fhM6C2jAukkkE5KUqZ8r-35">
          <mxGeometry x="10" y="15" width="1030" height="30" as="geometry" />
        </mxCell>
        <mxCell id="fhM6C2jAukkkE5KUqZ8r-36" value="" style="group" vertex="1" connectable="0" parent="1">
          <mxGeometry x="80" y="220" width="1050" height="60" as="geometry" />
        </mxCell>
        <mxCell id="fhM6C2jAukkkE5KUqZ8r-4" value="" style="rounded=0;whiteSpace=wrap;html=1;fillColor=#ffe6cc;strokeColor=#d79b00;" vertex="1" parent="fhM6C2jAukkkE5KUqZ8r-36">
          <mxGeometry width="1050" height="60" as="geometry" />
        </mxCell>
        <mxCell id="fhM6C2jAukkkE5KUqZ8r-12" value="&lt;font style=&quot;font-size: 18px;&quot;&gt;Algorithm Properties&lt;/font&gt;" style="text;html=1;strokeColor=none;fillColor=none;align=center;verticalAlign=middle;whiteSpace=wrap;rounded=0;" vertex="1" parent="fhM6C2jAukkkE5KUqZ8r-36">
          <mxGeometry x="10.1" y="15" width="1029.9" height="30" as="geometry" />
        </mxCell>
      </root>
    </mxGraphModel>
  </diagram>
</mxfile>
